<svg xmlns="http://www.w3.org/2000/svg" xmlns:xlink="http://www.w3.org/1999/xlink" width="253.151" height="56.525" viewBox="0 0 253.151 56.525">
  <defs>
    <linearGradient id="linear-gradient" x1="0.845" y1="0.466" x2="0.899" y2="0.119" gradientUnits="objectBoundingBox">
      <stop offset="0" stop-color="#fff500"/>
      <stop offset="1" stop-color="#ffa700"/>
    </linearGradient>
    <linearGradient id="linear-gradient-2" x1="0.579" y1="0.601" x2="0.661" y2="0.123" gradientUnits="objectBoundingBox">
      <stop offset="0" stop-color="#04c0ed"/>
      <stop offset="1" stop-color="#0058ff"/>
    </linearGradient>
    <linearGradient id="linear-gradient-3" x1="0.145" y1="0.55" x2="0.415" y2="0.113" xlink:href="#linear-gradient"/>
    <linearGradient id="linear-gradient-4" x1="0.142" y1="0.287" x2="0.837" y2="1.113" gradientUnits="objectBoundingBox">
      <stop offset="0" stop-color="#0e612e"/>
      <stop offset="1" stop-color="#3dbc6f"/>
    </linearGradient>
    <linearGradient id="linear-gradient-5" x1="0.033" y1="0.079" x2="0.905" y2="1" gradientUnits="objectBoundingBox">
      <stop offset="0" stop-color="#f4b92e"/>
      <stop offset="0.547" stop-color="#ead76f"/>
      <stop offset="1" stop-color="#e9bc37"/>
    </linearGradient>
  </defs>
  <g id="Group_33183" data-name="Group 33183" transform="translate(5880 3279.721)">
    <g id="Group_33178" data-name="Group 33178" transform="translate(-5880 -3279.721)">
      <g id="Group_32907" data-name="Group 32907" transform="translate(0 0)">
        <g id="Group_32897" data-name="Group 32897">
          <path id="Path_72680" data-name="Path 72680" d="M7217.562,4007.405c.1.266,15.6-.761,30.433-17.2.3.473,19.543-23.739,27.345-3.212s-16.477,40.211-37.63,35.9C7237.525,4022.675,7221.406,4017.156,7217.562,4007.405Z" transform="translate(-7212.596 -3967.453)" fill="url(#linear-gradient)"/>
          <circle id="Ellipse_2862" data-name="Ellipse 2862" cx="16.376" cy="16.376" r="16.376" transform="translate(18.224 1.272)" fill="url(#linear-gradient-2)"/>
          <path id="Path_72681" data-name="Path 72681" d="M7203.261,3955.478c.76-4.876,10.068-22.961,16.088-10.085a33.81,33.81,0,0,0,29.07,21.221c-.252-.061,13.057,1.5,16.279-5.115.851,1.623,7.378,25.472-25.2,34.048C7239.55,3995.5,7192.215,3992.814,7203.261,3955.478Z" transform="translate(-7201.59 -3940.851)" fill="url(#linear-gradient-3)"/>
          <path id="Path_72679" data-name="Path 72679" d="M7213.449,4034.562c.128.052-3.5-8.316,5.057-10.784.017.229,5.982-1.962,12.853,9.7.032.28,14.929,21.2,29.1,15.254C7260.456,4048.589,7230.149,4068.291,7213.449,4034.562Z" transform="translate(-7210.814 -3997.797)" fill="url(#linear-gradient-4)"/>
        </g>
      </g>
      <path id="Path_135372" data-name="Path 135372" d="M16.815-100.451H27.058v6.309H10.26v-28.679h6.555Zm18.559-17.043a3.515,3.515,0,0,1-2.581,1.065,3.549,3.549,0,0,1-2.6-1.086,3.549,3.549,0,0,1-1.086-2.6,3.549,3.549,0,0,1,1.086-2.6,3.549,3.549,0,0,1,2.6-1.086,3.549,3.549,0,0,1,2.6,1.086,3.549,3.549,0,0,1,1.086,2.6A3.583,3.583,0,0,1,35.374-117.495ZM29.721-94.142v-20.485h6.145v20.485Zm21.919-23.353q-3.81-.328-3.81,2.868h3.81v5.9h-3.81v14.585H41.684v-14.585H38.939v-5.9h2.745q0-4.425,2.5-6.74t7.457-2.028Zm7.129,15.569q1.065,2.868,4.916,2.868a5.082,5.082,0,0,0,3.933-1.557l4.916,2.827q-3.032,4.22-8.931,4.22a11.2,11.2,0,0,1-8.255-3.073,10.462,10.462,0,0,1-3.093-7.743,10.553,10.553,0,0,1,3.052-7.723,10.545,10.545,0,0,1,7.846-3.093,9.882,9.882,0,0,1,7.436,3.093,10.71,10.71,0,0,1,2.97,7.723,11.719,11.719,0,0,1-.246,2.458Zm-.123-4.589h8.809a4.08,4.08,0,0,0-4.343-3.237A4.157,4.157,0,0,0,58.645-106.515Zm30.645-8.112h6.8L88.512-94.142H81.547l-7.579-20.485h6.8l4.261,12.987Zm13.725,12.7q1.065,2.868,4.916,2.868a5.082,5.082,0,0,0,3.933-1.557l4.916,2.827q-3.032,4.22-8.931,4.22a11.2,11.2,0,0,1-8.255-3.073,10.461,10.461,0,0,1-3.093-7.743,10.553,10.553,0,0,1,3.052-7.723A10.545,10.545,0,0,1,107.4-115.2a9.882,9.882,0,0,1,7.436,3.093,10.71,10.71,0,0,1,2.97,7.723,11.721,11.721,0,0,1-.246,2.458Zm-.123-4.589H111.7a4.08,4.08,0,0,0-4.343-3.237A4.157,4.157,0,0,0,102.893-106.515Zm24.541-4.466a5.035,5.035,0,0,1,2.315-3.011,7.306,7.306,0,0,1,3.831-1.045v6.965a6.156,6.156,0,0,0-4.2.758,4.142,4.142,0,0,0-1.946,3.913v9.259h-6.145v-20.485h6.145Zm14.217,2.335q0,.615,1.045,1t2.52.778a22.781,22.781,0,0,1,2.95,1,5.971,5.971,0,0,1,2.52,2.028,5.8,5.8,0,0,1,1.045,3.544,5.709,5.709,0,0,1-2.458,5.019,10.4,10.4,0,0,1-6.064,1.7q-6.473,0-8.809-4.875l5.326-3.032a3.338,3.338,0,0,0,3.482,2.417q2.212,0,2.212-1.27,0-.615-1.045-1.024a23.239,23.239,0,0,0-2.52-.8,21.016,21.016,0,0,1-2.95-1.024,6.31,6.31,0,0,1-2.52-1.987,5.265,5.265,0,0,1-1.045-3.319,5.869,5.869,0,0,1,2.315-4.957,9.162,9.162,0,0,1,5.715-1.762,9.6,9.6,0,0,1,4.63,1.127,8.64,8.64,0,0,1,3.359,3.257l-5.244,2.827a3.024,3.024,0,0,0-2.745-1.8Q141.65-109.792,141.65-108.645Zm18.436,6.719q1.065,2.868,4.916,2.868a5.082,5.082,0,0,0,3.933-1.557l4.916,2.827q-3.032,4.22-8.931,4.22a11.2,11.2,0,0,1-8.255-3.073,10.461,10.461,0,0,1-3.093-7.743,10.553,10.553,0,0,1,3.052-7.723,10.545,10.545,0,0,1,7.846-3.093,9.882,9.882,0,0,1,7.436,3.093,10.71,10.71,0,0,1,2.97,7.723,11.719,11.719,0,0,1-.246,2.458Zm-.123-4.589h8.808a4.08,4.08,0,0,0-4.343-3.237A4.157,4.157,0,0,0,159.964-106.515Z" transform="translate(78.275 136.949)" fill="url(#linear-gradient-5)"/>
    </g>
  </g>
</svg>
